<?xml version="1.0" encoding="UTF-8"?>
<svg version="1.1" xmlns="http://www.w3.org/2000/svg" width="247" height="171">
<path d="M0 0 C2.44437537 1.88901601 4.75122388 3.88292314 7 6 C5.7703559 10.09287337 4.30880024 13.3889585 1.9375 16.9375 C-1.13233613 21.62644801 -4.06599263 26.37583113 -6.9375 31.1875 C-7.33912354 31.85966553 -7.74074707 32.53183105 -8.15454102 33.22436523 C-9.1042679 34.81550367 -10.05232082 36.4076411 -11 38 C-15.78445361 37.3903978 -19.43589199 35.35464639 -23.625 33.125 C-35.14662211 27.20240153 -48.14479983 22.75202773 -61.1171875 26.35546875 C-64.53365035 27.47748051 -64.53365035 27.47748051 -67 30 C-67.53824366 34.23471114 -67.35013963 37.94958112 -66 42 C-63.73774618 43.07254351 -63.73774618 43.07254351 -61 44 C-60.11828125 44.46921875 -59.2365625 44.9384375 -58.328125 45.421875 C-54.61811962 47.18107943 -50.89485505 48.23498977 -46.9375 49.25 C-32.17211559 53.21606167 -17.37449767 57.44050132 -4 65 C-4 65.66 -4 66.32 -4 67 C-3.42121094 67.25007813 -2.84242188 67.50015625 -2.24609375 67.7578125 C6.06981209 72.35686999 10.18239269 81.34160156 13 90 C16.66159499 104.06332345 14.03444702 120.01346988 6.7890625 132.3984375 C-2.08738084 145.30610402 -14.41117454 151.07995991 -29.29663086 154.53271484 C-45.02242428 157.25096361 -62.88234151 156.11355993 -78 151 C-78.95253662 150.68651611 -78.95253662 150.68651611 -79.92431641 150.36669922 C-89.91082019 147.00936289 -98.41423387 142.01806037 -107 136 C-108.18529297 135.18595703 -108.18529297 135.18595703 -109.39453125 134.35546875 C-109.92433594 133.90816406 -110.45414062 133.46085938 -111 133 C-111 132.34 -111 131.68 -111 131 C-111.66 131 -112.32 131 -113 131 C-110.82242091 125.11634881 -107.41712488 120.2287633 -104 115 C-103.15122115 113.65044497 -102.30362179 112.3001476 -101.45703125 110.94921875 C-100.57618118 109.56989057 -99.69467548 108.19098086 -98.8125 106.8125 C-98.39677734 106.14041504 -97.98105469 105.46833008 -97.55273438 104.77587891 C-96.33203125 102.89453125 -96.33203125 102.89453125 -94 100 C-89.26886581 100 -87.67452438 101.1605948 -84 104 C-84 104.66 -84 105.32 -84 106 C-82.02 106.66 -80.04 107.32 -78 108 C-78 108.66 -78 109.32 -78 110 C-77.24009766 110.17015625 -77.24009766 110.17015625 -76.46484375 110.34375 C-72.4368727 111.41617335 -68.51597347 112.82771316 -64.57617188 114.18359375 C-55.22499532 117.35380205 -42.46881386 119.63797888 -33.125 115.25 C-30.09693992 113.06979674 -29.2749657 112.31866071 -28 109 C-28.19564057 103.61988433 -29.3212279 100.87595922 -33 97 C-41.44399281 92.2997075 -51.17306725 90.05944025 -60.4375 87.5625 C-77.59358814 82.92443854 -92.23018053 77.94452991 -103.140625 63.26953125 C-107.94014329 54.83004216 -109.72689914 46.90925506 -109.625 37.25 C-109.62097168 36.20884033 -109.61694336 35.16768066 -109.61279297 34.0949707 C-109.34730269 23.82749188 -106.72498757 15.58748136 -101 7 C-100.34 7 -99.68 7 -99 7 C-98.73574219 6.40832031 -98.47148437 5.81664063 -98.19921875 5.20703125 C-94.67348228 -1.28170199 -88.07216412 -4.74508745 -81.625 -7.8125 C-81.02534424 -8.10229736 -80.42568848 -8.39209473 -79.80786133 -8.69067383 C-55.38478953 -19.74471046 -22.20353891 -13.67742189 0 0 Z " fill="#6DB44C" transform="translate(232,14)"/>
<path d="M0 0 C0.33 0.99 0.66 1.98 1 3 C0.34 3 -0.32 3 -1 3 C-1.66 4.98 -2.32 6.96 -3 9 C-3.66 9 -4.32 9 -5 9 C-8.52869499 18.7459195 -10.61579366 28.7359794 -12 39 C-15.34249629 38.40312566 -17.46436342 37.26396123 -20 35 C-20 34.34 -20 33.68 -20 33 C-20.825 32.731875 -21.65 32.46375 -22.5 32.1875 C-25.03821065 31.32632139 -27.50836422 30.41498788 -30 29.4375 C-40.74967004 25.42158553 -51.23995152 26.55802484 -62 30 C-64.02717912 30.94368683 -66.04290043 31.91844497 -68 33 C-68.66 33 -69.32 33 -70 33 C-70 33.66 -70 34.32 -70 35 C-71.22795623 36.13170313 -72.50851257 37.20681006 -73.8125 38.25 C-77.27826068 41.17596079 -79.32374125 43.70458695 -81 48 C-81.66 48 -82.32 48 -83 48 C-83.185625 49.0209375 -83.185625 49.0209375 -83.375 50.0625 C-84 53 -84 53 -85.015625 55.984375 C-86.45109905 60.9875592 -86.38341226 66.01606343 -86.375 71.1875 C-86.37338867 72.209646 -86.37177734 73.23179199 -86.37011719 74.28491211 C-86.14641003 88.05935138 -81.60538004 98.0378487 -72 108 C-71.01 108.495 -71.01 108.495 -70 109 C-70 109.66 -70 110.32 -70 111 C-69.154375 111.268125 -68.30875 111.53625 -67.4375 111.8125 C-64 113 -64 113 -60.4375 114.5625 C-49.92160577 118.96005577 -38.58747407 117.47695154 -28 114 C-25.97282088 113.05631317 -23.95709957 112.08155503 -22 111 C-21.34 111 -20.68 111 -20 111 C-20 110.34 -20 109.68 -20 109 C-18.35 108.34 -16.7 107.68 -15 107 C-15 106.34 -15 105.68 -15 105 C-14.34 105 -13.68 105 -13 105 C-12.773125 104.360625 -12.54625 103.72125 -12.3125 103.0625 C-11 101 -11 101 -8.6875 100 C-5.00566112 100 -3.61382234 101.53553893 -1 104 C-1.56524872 107.75566279 -2.57227635 110.30215246 -4.65234375 113.46875 C-5.44608398 114.69658203 -5.44608398 114.69658203 -6.25585938 115.94921875 C-7.08827148 117.21185547 -7.08827148 117.21185547 -7.9375 118.5 C-9.03379338 120.17457212 -10.12636836 121.85158566 -11.21484375 123.53125 C-11.70073975 124.26923828 -12.18663574 125.00722656 -12.68725586 125.76757812 C-14.0645402 128.10975554 -15.0540187 130.45650432 -16 133 C-14.21079529 134.6485816 -12.4187995 136.29393121 -10.625 137.9375 C-9.86316406 138.64036133 -9.86316406 138.64036133 -9.0859375 139.35742188 C-6.25734146 141.97726768 -6.25734146 141.97726768 -3 144 C-3 144.66 -3 145.32 -3 146 C-22.05320846 156.49431798 -45.83433955 159.89691285 -67.0625 154.25 C-69.38902172 153.54469657 -71.70445203 152.80038476 -74 152 C-74.89976563 151.71125 -75.79953125 151.4225 -76.7265625 151.125 C-83.94405606 148.55878007 -90.81079997 144.48183451 -97 140 C-97 139.34 -97 138.68 -97 138 C-97.598125 137.71125 -98.19625 137.4225 -98.8125 137.125 C-101 136 -101 136 -104 134 C-104 133.34 -104 132.68 -104 132 C-104.66 132 -105.32 132 -106 132 C-123.19683303 113.62048515 -129.12999133 90.48323269 -128.375 65.83984375 C-127.50060437 49.07057502 -122.10705745 32.56030208 -112 19 C-111.34 19 -110.68 19 -110 19 C-109.34 17.35 -108.68 15.7 -108 14 C-107.34 14 -106.68 14 -106 14 C-106 13.34 -106 12.68 -106 12 C-105.34 12 -104.68 12 -104 12 C-104 11.34 -104 10.68 -104 10 C-103.34 10 -102.68 10 -102 10 C-102 9.34 -102 8.68 -102 8 C-73.64367264 -15.1278351 -31.28075069 -21.12860692 0 0 Z " fill="#6DB34C" transform="translate(128,13)"/>
<path d="M0 0 C1.56234375 0.433125 1.56234375 0.433125 3.15625 0.875 C15.56468043 4.15143249 27.50970412 6.01359122 40 2 C39.1875 3.9375 39.1875 3.9375 38 6 C35.04633977 6.98455341 33.10685301 7.1288842 30.02734375 7.1328125 C29.04443359 7.13410156 28.06152344 7.13539063 27.04882812 7.13671875 C25.5087207 7.13091797 25.5087207 7.13091797 23.9375 7.125 C22.43799805 7.13080078 22.43799805 7.13080078 20.90820312 7.13671875 C14.54610417 7.12845092 8.31585818 6.76582288 2 6 C2.33 4.68 2.66 3.36 3 2 C2.01 2 1.02 2 0 2 C0 1.34 0 0.68 0 0 Z " fill="#85B96D" transform="translate(161,127)"/>
<path d="M0 0 C9.96188721 0.44079147 19.27634936 3.15352742 28 8 C28 8.33 28 8.66 28 9 C24.37471432 9.20140476 22.13498292 8.85776765 19 7 C19 6.34 19 5.68 19 5 C17.02 5 15.04 5 13 5 C12.67 5.99 12.34 6.98 12 8 C10.35 8 8.7 8 7 8 C6.773125 7.195625 6.54625 6.39125 6.3125 5.5625 C5.879375 4.716875 5.44625 3.87125 5 3 C2.45224694 2.10613836 2.45224694 2.10613836 0 2 C0 1.34 0 0.68 0 0 Z " fill="#82BA64" transform="translate(196,2)"/>
<path d="M0 0 C0.33 0.66 0.66 1.32 1 2 C4.94332315 3.79605226 4.94332315 3.79605226 9.0625 3.3125 C9.701875 3.209375 10.34125 3.10625 11 3 C12.70779973 4.62449243 14.37550757 6.29220027 16 8 C16.99 8 17.98 8 19 8 C19 9.65 19 11.3 19 13 C18.34 13 17.68 13 17 13 C17 12.34 17 11.68 17 11 C16.175 10.731875 15.35 10.46375 14.5 10.1875 C11 9 11 9 7.5625 7.5 C1.36868937 5.11217085 -5.44317948 4.72568977 -12 4 C-12 3.67 -12 3.34 -12 3 C-10.7625 2.87625 -9.525 2.7525 -8.25 2.625 C-5.1237803 2.24253695 -2.71120763 1.69450477 0 0 Z " fill="#81B567" transform="translate(91,35)"/>
<path d="M0 0 C1.03253906 0.01353516 1.03253906 0.01353516 2.0859375 0.02734375 C3.76577838 0.05067487 5.44543746 0.08653674 7.125 0.125 C4.39771024 2.85228976 2.67980196 2.41916842 -1.125 2.5625 C-6.44565717 2.88621255 -10.93589392 3.18589392 -14.875 7.125 C-14.97358603 8.5805937 -15.00472143 10.04107919 -15 11.5 C-15.00257813 12.29148437 -15.00515625 13.08296875 -15.0078125 13.8984375 C-14.96117666 16.29843496 -14.96117666 16.29843496 -13.875 19.125 C-12.885 19.455 -11.895 19.785 -10.875 20.125 C-12.75 20.75 -12.75 20.75 -14.875 21.125 C-17.75913459 18.24086541 -17.72065627 15.03270251 -17.875 11.125 C-17.68662456 8.73442595 -17.31798594 6.48759166 -16.875 4.125 C-16.215 4.125 -15.555 4.125 -14.875 4.125 C-14.545 3.465 -14.215 2.805 -13.875 2.125 C-9.24452066 0.11236005 -4.97025704 -0.12521965 0 0 Z " fill="#8BBB72" transform="translate(179.875,36.875)"/>
<path d="M0 0 C5.34434023 -0.20206762 9.9013961 0.46206844 15.0625 1.8125 C15.74376953 1.97814453 16.42503906 2.14378906 17.12695312 2.31445312 C21.39627712 3.40126471 25.10648922 4.88013219 29 7 C28.67 7.66 28.34 8.32 28 9 C27.38125 8.690625 26.7625 8.38125 26.125 8.0625 C22.45144987 6.81349296 19.06299017 6.57499191 15.20703125 6.34375 C13 6 13 6 11 4 C8.42938689 3.35232207 8.42938689 3.35232207 6 3 C6 2.34 6 1.68 6 1 C4.02 1 2.04 1 0 1 C0 0.67 0 0.34 0 0 Z " fill="#94C077" transform="translate(90,1)"/>
<path d="M0 0 C9.24250718 1.94158356 18.45714041 2.32813269 27.875 2.625 C27.875 2.955 27.875 3.285 27.875 3.625 C23.64597009 3.71360651 19.41718507 3.76592245 15.1875 3.8125 C14.00865234 3.83763672 12.82980469 3.86277344 11.61523438 3.88867188 C3.30308581 3.9569909 -4.11852995 2.84730279 -12.125 0.625 C-12.125 0.295 -12.125 -0.035 -12.125 -0.375 C-7.68928683 -1.63993722 -4.46138878 -0.99854492 0 0 Z " fill="#97BF81" transform="translate(69.125,165.375)"/>
<path d="M0 0 C6.36 0.36 6.36 0.36 8.9375 2.9375 C10.45328588 7.3065299 10.24005556 11.42116246 10 16 C9.34 16 8.68 16 8 16 C8 17.32 8 18.64 8 20 C6.68 19.67 5.36 19.34 4 19 C4.7734375 17.9790625 4.7734375 17.9790625 5.5625 16.9375 C7.4497456 13.08095465 7.10125046 11.11133505 6 7 C4.17987583 4.35788427 2.2613885 2.2613885 0 0 Z " fill="#7CB063" transform="translate(197,109)"/>
<path d="M0 0 C1.22912109 0.01353516 2.45824219 0.02707031 3.72460938 0.04101562 C6.71272513 0.07589635 9.69985873 0.12490302 12.6875 0.1875 C12.6875 0.5175 12.6875 0.8475 12.6875 1.1875 C11.74898193 1.22508423 11.74898193 1.22508423 10.79150391 1.26342773 C7.96495381 1.37925273 5.13874831 1.50203985 2.3125 1.625 C0.83523437 1.68397461 0.83523437 1.68397461 -0.671875 1.74414062 C-2.08339844 1.80698242 -2.08339844 1.80698242 -3.5234375 1.87109375 C-4.39274902 1.90775146 -5.26206055 1.94440918 -6.15771484 1.98217773 C-8.3608262 2.06151544 -8.3608262 2.06151544 -10.3125 3.1875 C-12.3922306 3.39432404 -14.47676812 3.55416554 -16.5625 3.6875 C-20.87655507 3.96582613 -25.057938 4.41394327 -29.3125 5.1875 C-22.63392097 -1.49107903 -8.74521521 -0.18647534 0 0 Z " fill="#98C481" transform="translate(182.3125,0.8125)"/>
<path d="M0 0 C3.87302138 1.14430177 7.00263439 2.23320098 10 5 C10 5.66 10 6.32 10 7 C9.34 7 8.68 7 8 7 C7.34 8.98 6.68 10.96 6 13 C5.01 12.67 4.02 12.34 3 12 C2.67 10.02 2.34 8.04 2 6 C2.66 6 3.32 6 4 6 C4 5.01 4 4.02 4 3 C2.68 2.67 1.36 2.34 0 2 C0 1.34 0 0.68 0 0 Z " fill="#72B157" transform="translate(119,9)"/>
<path d="M0 0 C0.66 0.33 1.32 0.66 2 1 C0.68 3.31 -0.64 5.62 -2 8 C-6.75481646 7.42365861 -9.97048212 5.44931479 -14 3 C-14 2.34 -14 1.68 -14 1 C-9.80530429 1.59924224 -5.99000166 2.57499941 -2 4 C-2.33 3.01 -2.66 2.02 -3 1 C-2.01 0.67 -1.02 0.34 0 0 Z " fill="#88B671" transform="translate(223,44)"/>
<path d="M0 0 C0.99 0.33 1.98 0.66 3 1 C1.68 3.64 0.36 6.28 -1 9 C-1.66 9 -2.32 9 -3 9 C-3.12375 9.680625 -3.2475 10.36125 -3.375 11.0625 C-4.09100877 14.4277412 -5.02945125 17.70013425 -6 21 C-7.54978255 16.11481587 -6.52809546 11.79733814 -5 7 C-3.52480848 4.39536497 -1.91761749 2.32132644 0 0 Z " fill="#88B871" transform="translate(48,52)"/>
<path d="M0 0 C3.3 0 6.6 0 10 0 C9.67 1.65 9.34 3.3 9 5 C9.99 4.67 10.98 4.34 12 4 C12.99 4.99 13.98 5.98 15 7 C13 8 13 8 10.72265625 7.29296875 C9.84480469 6.92816406 8.96695313 6.56335938 8.0625 6.1875 C6.74958984 5.65189453 6.74958984 5.65189453 5.41015625 5.10546875 C3 4 3 4 0 2 C0 1.34 0 0.68 0 0 Z " fill="#79B156" transform="translate(41,157)"/>
<path d="M0 0 C0.66 0.33 1.32 0.66 2 1 C0 4 0 4 -3 5 C-5.73865287 5.07051114 -8.45027588 5.09357765 -11.1875 5.0625 C-11.93708984 5.05798828 -12.68667969 5.05347656 -13.45898438 5.04882812 C-15.30602383 5.03706354 -17.15302213 5.01912865 -19 5 C-19 4.34 -19 3.68 -19 3 C-18.04738281 2.95101562 -17.09476563 2.90203125 -16.11328125 2.8515625 C-14.85902344 2.77679688 -13.60476562 2.70203125 -12.3125 2.625 C-10.45044922 2.52058594 -10.45044922 2.52058594 -8.55078125 2.4140625 C-5.29278663 2.03414234 -2.99258465 1.24017021 0 0 Z " fill="#92C07E" transform="translate(199,129)"/>
<path d="M0 0 C0.99 0.33 1.98 0.66 3 1 C3.73046875 2.890625 3.73046875 2.890625 4.1875 5.25 C4.34476562 6.06082031 4.50203125 6.87164062 4.6640625 7.70703125 C5.02410053 10.16450014 5.0751607 12.51969692 5 15 C5.33 15.66 5.66 16.32 6 17 C5.34 17.66 4.68 18.32 4 19 C1.56953809 12.67162748 0.40939975 6.76215448 0 0 Z " fill="#88B771" transform="translate(1,98)"/>
<path d="M0 0 C-0.125 1.8125 -0.125 1.8125 -1 4 C-2.95927833 5.07760308 -4.97186629 6.05836649 -7 7 C-10.04749835 8.93074407 -13.0261704 10.95797034 -16 13 C-16.33 12.34 -16.66 11.68 -17 11 C-16.34 11 -15.68 11 -15 11 C-15 10.34 -15 9.68 -15 9 C-12.9055032 7.36570249 -10.82217909 5.85832766 -8.625 4.375 C-8.02171875 3.95476563 -7.4184375 3.53453125 -6.796875 3.1015625 C-2.26537135 0 -2.26537135 0 0 0 Z " fill="#91BE77" transform="translate(41,12)"/>
<path d="M0 0 C3.63 0.66 7.26 1.32 11 2 C11.33 4.31 11.66 6.62 12 9 C9.33333333 7.66666667 6.66666667 6.33333333 4 5 C4 4.34 4 3.68 4 3 C2.68 2.34 1.36 1.68 0 1 C0 0.67 0 0.34 0 0 Z " fill="#85B86C" transform="translate(27,148)"/>
<path d="M0 0 C5.39795989 1.15058556 10.70987333 2.42421759 16 4 C16 4.33 16 4.66 16 5 C15.33613281 4.98839844 14.67226562 4.97679688 13.98828125 4.96484375 C7.43693213 4.88106591 7.43693213 4.88106591 1 6 C0.67 4.02 0.34 2.04 0 0 Z " fill="#84BA68" transform="translate(195,67)"/>
<path d="M0 0 C0.66 0 1.32 0 2 0 C-0.00951192 7.14493126 -6.16273522 12.75471652 -12 17 C-12.33 16.01 -12.66 15.02 -13 14 C-12.01 13.67 -11.02 13.34 -10 13 C-8.79117904 10.99983534 -8.79117904 10.99983534 -8 9 C-7.01 9 -6.02 9 -5 9 C-4.690625 8.38125 -4.38125 7.7625 -4.0625 7.125 C-3.375 5.75 -2.6875 4.375 -2 3 C-1.34 3 -0.68 3 0 3 C0 2.01 0 1.02 0 0 Z " fill="#82B36C" transform="translate(238,142)"/>
<path d="M0 0 C1.1171875 3.71875 1.1171875 3.71875 0.0625 6.25 C-1.38134296 9.9870053 -1.13534184 13.00741565 -1 17 C-1.99 17.33 -2.98 17.66 -4 18 C-5.46133311 13.35348573 -4.39260421 10.60653212 -2.5625 6.1875 C-2.08941406 5.02605469 -1.61632812 3.86460938 -1.12890625 2.66796875 C-0.75636719 1.78753906 -0.38382812 0.90710938 0 0 Z " fill="#8FBC77" transform="translate(128,26)"/>
<path d="M0 0 C1.32 0.66 2.64 1.32 4 2 C2.68 2.33 1.36 2.66 0 3 C0 3.66 0 4.32 0 5 C-1.53125 6.2890625 -1.53125 6.2890625 -3.5 7.625 C-4.1496875 8.07101563 -4.799375 8.51703125 -5.46875 8.9765625 C-5.9740625 9.31429687 -6.479375 9.65203125 -7 10 C-7 7.69 -7 5.38 -7 3 C-3.535 2.505 -3.535 2.505 0 2 C0 1.34 0 0.68 0 0 Z " fill="#81B866" transform="translate(58,43)"/>
<path d="M0 0 C2.5 1.375 2.5 1.375 5 3 C5 3.66 5 4.32 5 5 C-1.75 9 -1.75 9 -4 9 C-4.66 7.35 -5.32 5.7 -6 4 C-3.03 4.495 -3.03 4.495 0 5 C0 3.35 0 1.7 0 0 Z " fill="#8FBF79" transform="translate(120,154)"/>
<path d="M0 0 C0.33 0 0.66 0 1 0 C1.18175781 0.62648437 1.36351563 1.25296875 1.55078125 1.8984375 C1.80214844 2.71570313 2.05351563 3.53296875 2.3125 4.375 C2.55613281 5.18710938 2.79976563 5.99921875 3.05078125 6.8359375 C3.91368185 9.33184629 3.91368185 9.33184629 7 11 C6.67 11.66 6.34 12.32 6 13 C4.82780457 12.21654285 3.66236332 11.42297164 2.5 10.625 C1.8503125 10.18414062 1.200625 9.74328125 0.53125 9.2890625 C-0.22671875 8.65097656 -0.22671875 8.65097656 -1 8 C-1 7.34 -1 6.68 -1 6 C-1.66 6 -2.32 6 -3 6 C-1.125 1.125 -1.125 1.125 0 0 Z " fill="#8EBD7C" transform="translate(122,139)"/>
<path d="M0 0 C0.99 0.33 1.98 0.66 3 1 C4.69262664 5.380916 5.30153263 10.32624426 5 15 C2.82813579 12.82813579 2.3206752 11.50023469 1.375 8.625 C1.11460938 7.85414062 0.85421875 7.08328125 0.5859375 6.2890625 C0 4 0 4 0 0 Z " fill="#8EBD72" transform="translate(123,59)"/>
<path d="M0 0 C1.29608947 0.93137592 2.58671632 1.8703566 3.875 2.8125 C4.59429687 3.33457031 5.31359375 3.85664063 6.0546875 4.39453125 C8 6 8 6 10 9 C9.01 9.495 9.01 9.495 8 10 C8 9.34 8 8.68 8 8 C6.35 8 4.7 8 3 8 C2.67 6.68 2.34 5.36 2 4 C1.01 4 0.02 4 -1 4 C-0.67 2.68 -0.34 1.36 0 0 Z " fill="#85BB70" transform="translate(110,145)"/>
<path d="M0 0 C3.3 0.99 6.6 1.98 10 3 C10 3.99 10 4.98 10 6 C8.54077307 5.88590407 7.08259402 5.75834456 5.625 5.625 C4.40683594 5.52058594 4.40683594 5.52058594 3.1640625 5.4140625 C1 5 1 5 -1 3 C-0.67 2.01 -0.34 1.02 0 0 Z " fill="#8ABC73" transform="translate(172,59)"/>
<path d="M0 0 C-1.32 0.33 -2.64 0.66 -4 1 C-4 1.66 -4 2.32 -4 3 C-11.92 3.495 -11.92 3.495 -20 4 C-14.15241063 0.10160709 -6.89388918 -0.29973431 0 0 Z " fill="#96C380" transform="translate(77,1)"/>
<path d="M0 0 C1.98523557 1.98523557 2.85464378 3.5016206 4.0625 6 C4.40410156 6.70125 4.74570312 7.4025 5.09765625 8.125 C5.54431641 9.053125 5.54431641 9.053125 6 10 C6.33 10.66 6.66 11.32 7 12 C5.35 11.67 3.7 11.34 2 11 C2 10.01 2 9.02 2 8 C1.34 8 0.68 8 0 8 C0 5.36 0 2.72 0 0 Z " fill="#90BD7F" transform="translate(43,103)"/>
<path d="M0 0 C0.99020864 3.20142644 1.0200144 5.79985601 0.6875 9.125 C0.60886719 9.99382813 0.53023438 10.86265625 0.44921875 11.7578125 C0 14 0 14 -2 16 C-3.43680971 9.86090397 -2.32637691 5.79622721 0 0 Z " fill="#83B46A" transform="translate(5,53)"/>
<path d="M0 0 C1.32 0.33 2.64 0.66 4 1 C4.103125 1.639375 4.20625 2.27875 4.3125 2.9375 C4.539375 3.618125 4.76625 4.29875 5 5 C5.99 5.33 6.98 5.66 8 6 C8 6.66 8 7.32 8 8 C8.66 8.33 9.32 8.66 10 9 C9.01 9.495 9.01 9.495 8 10 C7.34 9.67 6.68 9.34 6 9 C6 8.34 6 7.68 6 7 C5.34 7 4.68 7 4 7 C0 2.52941176 0 2.52941176 0 0 Z " fill="#8CBA7A" transform="translate(18,138)"/>
<path d="M0 0 C0.99 0 1.98 0 3 0 C1.43358249 4.30764815 -0.68336156 8.06171464 -3 12 C-3.33 12 -3.66 12 -4 12 C-3.67 9.36 -3.34 6.72 -3 4 C-2.34 4 -1.68 4 -1 4 C-0.67 2.68 -0.34 1.36 0 0 Z " fill="#92B97C" transform="translate(234,24)"/>
<path d="M0 0 C2.31 0.33 4.62 0.66 7 1 C8.125 3.3125 8.125 3.3125 9 6 C8.01 7.485 8.01 7.485 7 9 C6.401875 8.071875 5.80375 7.14375 5.1875 6.1875 C3.54727155 3.79745282 2.1281083 1.91529747 0 0 Z " fill="#88BB6A" transform="translate(197,109)"/>
<path d="M0 0 C0.66 0.33 1.32 0.66 2 1 C1.67 2.32 1.34 3.64 1 5 C0.34 5 -0.32 5 -1 5 C-1.2475 5.639375 -1.495 6.27875 -1.75 6.9375 C-3 9 -3 9 -5.125 9.75 C-6.053125 9.87375 -6.053125 9.87375 -7 10 C-6.67 9.01 -6.34 8.02 -6 7 C-5.34 7 -4.68 7 -4 7 C-3.34 5.35 -2.68 3.7 -2 2 C-1.34 2 -0.68 2 0 2 C0 1.34 0 0.68 0 0 Z " fill="#93C081" transform="translate(22,25)"/>
<path d="M0 0 C0.99 0.66 1.98 1.32 3 2 C-1.75 6 -1.75 6 -4 6 C-3.67 7.65 -3.34 9.3 -3 11 C-4.32 10.67 -5.64 10.34 -7 10 C-6.34 8.35 -5.68 6.7 -5 5 C-4.34 5 -3.68 5 -3 5 C-2.690625 4.360625 -2.38125 3.72125 -2.0625 3.0625 C-1 1 -1 1 0 0 Z " fill="#8ABD73" transform="translate(136,16)"/>
<path d="M0 0 C1.31602523 0.61754259 2.62773556 1.24428742 3.9375 1.875 C4.66839844 2.22304687 5.39929688 2.57109375 6.15234375 2.9296875 C8 4 8 4 9 6 C5.625 6.125 5.625 6.125 2 6 C1.34 5.34 0.68 4.68 0 4 C0 2.68 0 1.36 0 0 Z " fill="#8CBB71" transform="translate(225,11)"/>
<path d="M0 0 C-1.60149886 0.67305018 -3.20631029 1.33822227 -4.8125 2 C-6.15248047 2.556875 -6.15248047 2.556875 -7.51953125 3.125 C-10 4 -10 4 -13 4 C-12.67 3.01 -12.34 2.02 -12 1 C-10.29296875 0.234375 -10.29296875 0.234375 -8.1875 -0.25 C-7.50042969 -0.42015625 -6.81335938 -0.5903125 -6.10546875 -0.765625 C-3.80500179 -1.02170666 -2.19370273 -0.69015367 0 0 Z " fill="#8EBA79" transform="translate(222,162)"/>
<path d="M0 0 C0.66 0 1.32 0 2 0 C2 0.66 2 1.32 2 2 C3.670625 1.9690625 3.670625 1.9690625 5.375 1.9375 C9 2 9 2 11 3 C11 3.66 11 4.32 11 5 C11.99 5.33 12.98 5.66 14 6 C8.54520815 5.43179252 4.08940744 4.05362055 -1 2 C-0.67 1.34 -0.34 0.68 0 0 Z " fill="#8FBB79" transform="translate(147,160)"/>
<path d="M0 0 C5.77378925 0.4811491 9.95859836 2.18467181 15 5 C15 5.33 15 5.66 15 6 C11.37471432 6.20140476 9.13498292 5.85776765 6 4 C6 3.34 6 2.68 6 2 C4.02 2 2.04 2 0 2 C0 1.34 0 0.68 0 0 Z " fill="#92BE7A" transform="translate(209,5)"/>
<path d="M0 0 C1.58294782 -0.05437607 3.16644256 -0.09296271 4.75 -0.125 C5.63171875 -0.14820313 6.5134375 -0.17140625 7.421875 -0.1953125 C10.1135858 0.00860498 11.69904974 0.63448279 14 2 C14 2.66 14 3.32 14 4 C13.40832031 3.86722656 12.81664062 3.73445313 12.20703125 3.59765625 C8.14553475 2.68994822 4.08625829 1.7908887 0 1 C0 0.67 0 0.34 0 0 Z " fill="#8EB878" transform="translate(189,39)"/>
<path d="M0 0 C3.5219721 -0.08004482 6.61981469 -0.04005702 10 1 C10 2.65 10 4.3 10 6 C9.34 6 8.68 6 8 6 C8 5.34 8 4.68 8 4 C7.05125 3.71125 6.1025 3.4225 5.125 3.125 C2 2 2 2 0 0 Z " fill="#89B973" transform="translate(100,42)"/>
<path d="M0 0 C0.33 0 0.66 0 1 0 C0.67 2.64 0.34 5.28 0 8 C-1.65 8.33 -3.3 8.66 -5 9 C-3.50164236 5.88802644 -1.86022073 2.91164984 0 0 Z " fill="#90BF79" transform="translate(136,117)"/>
<path d="M0 0 C5.74418605 4.23255814 5.74418605 4.23255814 7 8 C6.67 8.66 6.34 9.32 6 10 C5.34 10 4.68 10 4 10 C3.32845067 8.71086513 2.66291141 7.41859796 2 6.125 C1.62875 5.40570313 1.2575 4.68640625 0.875 3.9453125 C0 2 0 2 0 0 Z " fill="#82B76B" transform="translate(233,85)"/>
<path d="M0 0 C-4.65285818 3.10190545 -9.41532676 4.33846504 -15 4 C-13.66666667 3.33333333 -12.33333333 2.66666667 -11 2 C-10.401875 1.62875 -9.80375 1.2575 -9.1875 0.875 C-6.10002823 -0.35998871 -3.28774877 -0.12645188 0 0 Z " fill="#95BF85" transform="translate(112,164)"/>
<path d="M0 0 C3 0 3 0 4.6875 1.1875 C6.40364695 3.55741722 6.23187108 5.14025666 6 8 C1.125 3.375 1.125 3.375 0 0 Z " fill="#94BA80" transform="translate(12,130)"/>
<path d="M0 0 C2.97 1.98 2.97 1.98 6 4 C5.67 5.65 5.34 7.3 5 9 C2.66166845 6.87424405 1.2244879 4.91993269 0 2 C0 1.34 0 0.68 0 0 Z " fill="#96BE7D" transform="translate(121,113)"/>
<path d="M0 0 C0.97582031 0.19464844 1.95164062 0.38929688 2.95703125 0.58984375 C4.06111328 0.82380859 4.06111328 0.82380859 5.1875 1.0625 C5.1875 1.3925 5.1875 1.7225 5.1875 2.0625 C3.08361431 2.11652274 0.97933286 2.15530256 -1.125 2.1875 C-2.88263672 2.22230469 -2.88263672 2.22230469 -4.67578125 2.2578125 C-7.8125 2.0625 -7.8125 2.0625 -10.8125 0.0625 C-6.8710998 -0.96788433 -3.97634848 -0.81443282 0 0 Z " fill="#83B76C" transform="translate(67.8125,164.9375)"/>
<path d="M0 0 C3.96 0.33 7.92 0.66 12 1 C12 1.66 12 2.32 12 3 C8.69564916 4.12377697 6.9493138 3.89554742 3.75 2.5625 C3.04359375 2.27503906 2.3371875 1.98757812 1.609375 1.69140625 C1.07828125 1.46324219 0.5471875 1.23507813 0 1 C0 0.67 0 0.34 0 0 Z " fill="#92C57E" transform="translate(151,94)"/>
<path d="M0 0 C0.66 0 1.32 0 2 0 C0.6062718 4.43458973 -1.60582235 6.87378374 -5 10 C-4.38722388 7.03824877 -3.74627478 5.61941217 -2 3 C-1.34 3 -0.68 3 0 3 C0 2.01 0 1.02 0 0 Z " fill="#94BB7F" transform="translate(238,142)"/>
<path d="M0 0 C0.66 0.33 1.32 0.66 2 1 C1.34 1.66 0.68 2.32 0 3 C-0.39764263 4.98821313 -0.73775349 6.98944339 -1 9 C-2.32 8.34 -3.64 7.68 -5 7 C-5 6.34 -5 5.68 -5 5 C-4.34 5 -3.68 5 -3 5 C-2.5359375 4.0409375 -2.5359375 4.0409375 -2.0625 3.0625 C-1 1 -1 1 0 0 Z " fill="#90C17C" transform="translate(118,113)"/>
<path d="M0 0 C1.4370809 -0.05422947 2.87475462 -0.09289723 4.3125 -0.125 C5.11300781 -0.14820312 5.91351563 -0.17140625 6.73828125 -0.1953125 C9 0 9 0 12 2 C12 2.66 12 3.32 12 4 C6.06 2.515 6.06 2.515 0 1 C0 0.67 0 0.34 0 0 Z " fill="#9CC287" transform="translate(162,98)"/>
<path d="M0 0 C2.5 1.375 2.5 1.375 5 3 C5 3.66 5 4.32 5 5 C4.34 5 3.68 5 3 5 C2.34 6.98 1.68 8.96 1 11 C-0.00335818 7.87844121 0.19329077 6.12599828 1 3 C0.67 2.01 0.34 1.02 0 0 Z " fill="#A8C998" transform="translate(124,11)"/>
<path d="M0 0 C-2 3 -2 3 -5 3.8125 C-5.99 3.874375 -6.98 3.93625 -8 4 C-8.66 3.34 -9.32 2.68 -10 2 C-8.71211992 1.46987262 -7.41953322 0.9511671 -6.125 0.4375 C-5.40570313 0.14746094 -4.68640625 -0.14257812 -3.9453125 -0.44140625 C-2 -1 -2 -1 0 0 Z " fill="#95C182" transform="translate(104,127)"/>
<path d="M0 0 C0.99 0.33 1.98 0.66 3 1 C2.67 1.66 2.34 2.32 2 3 C0.68 3 -0.64 3 -2 3 C-2.33 3.99 -2.66 4.98 -3 6 C-4.32 5.67 -5.64 5.34 -7 5 C-5.68 4.67 -4.36 4.34 -3 4 C-3 3.34 -3 2.68 -3 2 C-2.01 1.34 -1.02 0.68 0 0 Z " fill="#95C282" transform="translate(111,120)"/>
<path d="M0 0 C0 1.32 0 2.64 0 4 C-1.875 3.6875 -1.875 3.6875 -4 3 C-4.66 2.01 -5.32 1.02 -6 0 C-2.25 -1.125 -2.25 -1.125 0 0 Z " fill="#98BC8C" transform="translate(116,48)"/>
<path d="M0 0 C-1 3 -1 3 -2.8125 4.25 C-5.33943414 5.11637742 -6.52221994 4.88492145 -9 4 C-2.25 0 -2.25 0 0 0 Z " fill="#9EC58B" transform="translate(50,7)"/>
<path d="M0 0 C-2.31 1.65 -4.62 3.3 -7 5 C-6.625 2.5625 -6.625 2.5625 -6 0 C-4 -1 -4 -1 0 0 Z " fill="#87B670" transform="translate(58,48)"/>
<path d="M0 0 C0.99 1.32 1.98 2.64 3 4 C0.69 4 -1.62 4 -4 4 C-4.33 3.34 -4.66 2.68 -5 2 C-3.35 1.34 -1.7 0.68 0 0 Z " fill="#77AE5D" transform="translate(101,38)"/>
<path d="M0 0 C6.52307692 -0.36923077 6.52307692 -0.36923077 8.9375 1.5 C9.288125 1.995 9.63875 2.49 10 3 C8 4 8 4 6.0546875 3.44140625 C5.33539063 3.15136719 4.61609375 2.86132812 3.875 2.5625 C3.15054688 2.27503906 2.42609375 1.98757812 1.6796875 1.69140625 C0.84824219 1.34916016 0.84824219 1.34916016 0 1 C0 0.67 0 0.34 0 0 Z " fill="#97C083" transform="translate(46,161)"/>
<path d="M0 0 C4.05606165 0.46800711 7.46588679 0.87953208 11 3 C8.36 3 5.72 3 3 3 C3 2.34 3 1.68 3 1 C2.01 0.67 1.02 0.34 0 0 Z " fill="#94C280" transform="translate(184,64)"/>
</svg>
